<svg width="35" height="35" viewBox="0 0 35 35" fill="none" xmlns="http://www.w3.org/2000/svg">
<path fill-rule="evenodd" clip-rule="evenodd" d="M10.8865 1.55475C12.5971 1.476 13.1425 1.4585 17.5 1.4585C21.8575 1.4585 22.4029 1.47745 24.1121 1.55475C25.8212 1.63204 26.9879 1.90475 28.0087 2.29995C29.0777 2.70391 30.0475 3.33537 30.8496 4.15204C31.6662 4.95266 32.2962 5.921 32.6987 6.99141C33.0954 8.01225 33.3667 9.17891 33.4454 10.8852C33.5242 12.5987 33.5417 13.1441 33.5417 17.5002C33.5417 21.8562 33.5227 22.4031 33.4454 24.1137C33.3681 25.82 33.0954 26.9866 32.6987 28.0075C32.2961 29.0779 31.665 30.0478 30.8496 30.8497C30.0475 31.6664 29.0777 32.2964 28.0087 32.6989C26.9879 33.0956 25.8212 33.3668 24.115 33.4456C22.4029 33.5243 21.8575 33.5418 17.5 33.5418C13.1425 33.5418 12.5971 33.5229 10.8865 33.4456C9.1802 33.3683 8.01354 33.0956 6.9927 32.6989C5.92223 32.2962 4.95232 31.6652 4.15041 30.8497C3.33459 30.0484 2.70308 29.079 2.29979 28.0089C1.90458 26.9881 1.63333 25.8214 1.55458 24.1152C1.47583 22.4016 1.45833 21.8562 1.45833 17.5002C1.45833 13.1441 1.47729 12.5972 1.55458 10.8881C1.63187 9.17891 1.90458 8.01225 2.29979 6.99141C2.70351 5.9212 3.33552 4.95178 4.15187 4.15058C4.95279 3.33493 5.92169 2.70344 6.99124 2.29995C8.01208 1.90475 9.1802 1.6335 10.8865 1.55475ZM23.9808 4.44225C22.2892 4.36495 21.7817 4.34891 17.4985 4.34891C13.2154 4.34891 12.7079 4.36495 11.0162 4.44225C9.45145 4.5137 8.6027 4.77475 8.03687 4.99495C7.28874 5.28662 6.75354 5.63225 6.19208 6.1937C5.65939 6.71111 5.24972 7.34156 4.99333 8.0385C4.77312 8.60433 4.51208 9.45308 4.44062 11.0179C4.36333 12.7095 4.34729 13.217 4.34729 17.5002C4.34729 21.7833 4.36333 22.2908 4.44062 23.9825C4.51208 25.5472 4.77312 26.396 4.99333 26.9618C5.24999 27.6575 5.65979 28.2889 6.19208 28.8066C6.70979 29.3389 7.34124 29.7487 8.03687 30.0054C8.6027 30.2256 9.45145 30.4866 11.0162 30.5581C12.7079 30.6354 13.214 30.6514 17.4985 30.6514C21.7831 30.6514 22.2892 30.6354 23.9808 30.5581C25.5456 30.4866 26.3944 30.2256 26.9602 30.0054C27.7083 29.7137 28.2435 29.3681 28.805 28.8066C29.3373 28.2889 29.7471 27.6575 30.0037 26.9618C30.224 26.396 30.485 25.5472 30.5564 23.9825C30.6337 22.2908 30.6498 21.7833 30.6498 17.5002C30.6498 13.217 30.6337 12.7095 30.5564 11.0179C30.485 9.45308 30.224 8.60433 30.0037 8.0385C29.7121 7.29037 29.3665 6.75516 28.805 6.1937C28.2876 5.66102 27.6571 5.25135 26.9602 4.99495C26.3944 4.77475 25.5456 4.5137 23.9808 4.44225ZM15.4496 22.4454C16.5939 22.9217 17.868 22.986 19.0545 22.6273C20.2409 22.2685 21.266 21.509 21.9546 20.4784C22.6433 19.4479 22.9528 18.2102 22.8303 16.9768C22.7078 15.7434 22.1608 14.5907 21.2829 13.7158C20.7233 13.1565 20.0466 12.7282 19.3015 12.4618C18.5565 12.1954 17.7617 12.0976 16.9743 12.1752C16.1869 12.2529 15.4265 12.5042 14.7478 12.911C14.0692 13.3178 13.4892 13.87 13.0496 14.5279C12.61 15.1857 12.3217 15.9329 12.2055 16.7155C12.0893 17.4982 12.1481 18.2968 12.3777 19.054C12.6072 19.8112 13.0017 20.5081 13.5329 21.0945C14.0641 21.681 14.7187 22.1423 15.4496 22.4454ZM11.6696 11.6697C12.4352 10.9041 13.3442 10.2967 14.3446 9.88236C15.345 9.46798 16.4172 9.25471 17.5 9.25471C18.5828 9.25471 19.655 9.46798 20.6554 9.88236C21.6558 10.2967 22.5647 10.9041 23.3304 11.6697C24.0961 12.4354 24.7034 13.3444 25.1178 14.3448C25.5322 15.3451 25.7454 16.4174 25.7454 17.5002C25.7454 18.583 25.5322 19.6552 25.1178 20.6556C24.7034 21.6559 24.0961 22.5649 23.3304 23.3306C21.7841 24.8769 19.6868 25.7456 17.5 25.7456C15.3132 25.7456 13.2159 24.8769 11.6696 23.3306C10.1233 21.7843 9.25454 19.687 9.25454 17.5002C9.25454 15.3133 10.1233 13.2161 11.6696 11.6697ZM27.5742 10.4827C27.7639 10.3037 27.9158 10.0884 28.0209 9.84971C28.1259 9.61097 28.182 9.35358 28.1858 9.09277C28.1896 8.83196 28.141 8.57304 28.043 8.33134C27.9449 8.08964 27.7994 7.87007 27.6149 7.68564C27.4305 7.5012 27.2109 7.35564 26.9692 7.25758C26.7275 7.15953 26.4686 7.11096 26.2078 7.11476C25.947 7.11856 25.6896 7.17466 25.4509 7.27972C25.2121 7.38478 24.9969 7.53668 24.8179 7.72641C24.4698 8.09541 24.2792 8.58555 24.2866 9.09277C24.294 9.59999 24.4988 10.0844 24.8575 10.4431C25.2162 10.8018 25.7006 11.0065 26.2078 11.0139C26.715 11.0213 27.2052 10.8308 27.5742 10.4827Z" fill="#FCECC1"/>
</svg>
