<svg width="35" height="35" viewBox="0 0 35 35" fill="none" xmlns="http://www.w3.org/2000/svg">
<path d="M17.5087 6.26367C13.615 6.26367 9.72417 7.40701 6.35979 9.69513H0L2.86271 12.8087C1.55838 13.997 0.644025 15.5521 0.239751 17.2697C-0.164524 18.9873 -0.0398045 20.787 0.597524 22.4323C1.23485 24.0777 2.35498 25.4918 3.81076 26.4889C5.26654 27.486 6.98987 28.0194 8.75437 28.0191C10.959 28.0204 13.0823 27.1867 14.6971 25.6858L17.5 28.7366L20.3029 25.6887C21.9162 27.1888 24.0383 28.0216 26.2412 28.0191C28.5614 28.0191 30.7865 27.0976 32.4274 25.4573C34.0683 23.817 34.9905 21.5921 34.9912 19.272C34.9928 18.0552 34.7397 16.8515 34.2481 15.7384C33.7566 14.6252 33.0376 13.6273 32.1373 12.8087L35 9.69513H28.6562C25.3695 7.45739 21.4849 6.26162 17.5087 6.26367ZM17.5 9.12201C19.7327 9.12201 21.9669 9.56388 24.0683 10.4389C20.3335 11.868 17.5 15.2106 17.5 19.1043C17.5 15.2091 14.6679 11.868 10.9317 10.4389C13.0127 9.57071 15.2451 9.12216 17.5 9.12201ZM8.75292 13.3541C9.53026 13.3541 10.3 13.5072 11.0182 13.8047C11.7363 14.1022 12.3889 14.5382 12.9385 15.0878C13.4882 15.6375 13.9242 16.29 14.2217 17.0082C14.5192 17.7264 14.6723 18.4961 14.6723 19.2735C14.6723 20.0508 14.5192 20.8205 14.2217 21.5387C13.9242 22.2569 13.4882 22.9094 12.9385 23.4591C12.3889 24.0088 11.7363 24.4448 11.0182 24.7423C10.3 25.0397 9.53026 25.1928 8.75292 25.1928C7.183 25.1928 5.67738 24.5692 4.56729 23.4591C3.45719 22.349 2.83354 20.8434 2.83354 19.2735C2.83354 17.7036 3.45719 16.1979 4.56729 15.0878C5.67738 13.9777 7.183 13.3541 8.75292 13.3541ZM26.2412 13.357C27.0183 13.3567 27.7878 13.5095 28.5058 13.8066C29.2238 14.1037 29.8763 14.5393 30.426 15.0886C30.9756 15.6378 31.4117 16.29 31.7094 17.0078C32.007 17.7256 32.1603 18.495 32.1606 19.272C32.1609 20.0491 32.0081 20.8186 31.711 21.5366C31.4139 22.2546 30.9783 22.9071 30.4291 23.4567C29.8798 24.0064 29.2277 24.4425 28.5099 24.7401C27.7921 25.0378 27.0227 25.1911 26.2456 25.1914C24.6763 25.192 23.171 24.5691 22.0609 23.4598C20.9508 22.3505 20.3268 20.8457 20.3263 19.2764C20.3257 17.707 20.9485 16.2018 22.0578 15.0917C23.1671 13.9816 24.6719 13.3576 26.2412 13.357ZM8.75292 16.1716C7.92986 16.1716 7.14052 16.4985 6.55853 17.0805C5.97654 17.6625 5.64958 18.4519 5.64958 19.2749C5.64958 20.098 5.97654 20.8873 6.55853 21.4693C7.14052 22.0513 7.92986 22.3783 8.75292 22.3783C9.57597 22.3783 10.3653 22.0513 10.9473 21.4693C11.5293 20.8873 11.8563 20.098 11.8563 19.2749C11.8563 18.4519 11.5293 17.6625 10.9473 17.0805C10.3653 16.4985 9.57597 16.1716 8.75292 16.1716ZM26.2412 16.1716C25.4182 16.1716 24.6289 16.4985 24.0469 17.0805C23.4649 17.6625 23.1379 18.4519 23.1379 19.2749C23.1379 20.098 23.4649 20.8873 24.0469 21.4693C24.6289 22.0513 25.4182 22.3783 26.2412 22.3783C27.0643 22.3783 27.8537 22.0513 28.4356 21.4693C29.0176 20.8873 29.3446 20.098 29.3446 19.2749C29.3446 18.4519 29.0176 17.6625 28.4356 17.0805C27.8537 16.4985 27.0643 16.1716 26.2412 16.1716Z" fill="#FCECC1"/>
</svg>
