<svg width="35" height="35" viewBox="0 0 35 35" fill="none" xmlns="http://www.w3.org/2000/svg">
<path d="M30.4792 2.9165H4.52082C4.09537 2.9165 3.68735 3.08551 3.38651 3.38635C3.08567 3.68719 2.91666 4.09522 2.91666 4.52067V30.479C2.91666 30.9045 3.08567 31.3125 3.38651 31.6133C3.68735 31.9142 4.09537 32.0832 4.52082 32.0832H18.4917V20.7811H14.7V16.4061H18.4917V13.1248C18.4131 12.3545 18.5041 11.5763 18.7581 10.8448C19.0122 10.1133 19.4232 9.44626 19.9623 8.89044C20.5015 8.33462 21.1557 7.90348 21.8791 7.62727C22.6025 7.35105 23.3776 7.23645 24.15 7.2915C25.2851 7.28367 26.4196 7.3421 27.5479 7.4665V11.404H25.2292C23.3917 11.404 23.0417 12.279 23.0417 13.5478V16.3623H27.4167L26.8479 20.7373H23.0417V32.0832H30.4792C30.6898 32.0832 30.8984 32.0417 31.093 31.9611C31.2877 31.8804 31.4645 31.7623 31.6135 31.6133C31.7624 31.4644 31.8806 31.2875 31.9612 31.0929C32.0418 30.8983 32.0833 30.6897 32.0833 30.479V4.52067C32.0833 4.31001 32.0418 4.10141 31.9612 3.90678C31.8806 3.71216 31.7624 3.53531 31.6135 3.38635C31.4645 3.23739 31.2877 3.11923 31.093 3.03861C30.8984 2.958 30.6898 2.9165 30.4792 2.9165Z" fill="#FCECC1"/>
</svg>
