<svg width="211" height="47" viewBox="0 0 211 47" fill="none" xmlns="http://www.w3.org/2000/svg">
<path d="M95.6842 30.6675V30.8437C95.6842 31.0396 95.6646 31.255 95.6254 31.49C95.5863 31.7119 95.5667 31.9339 95.5667 32.1558C95.5667 32.4431 95.5732 32.6976 95.5863 32.9196C95.5993 33.1415 95.6058 33.3569 95.6058 33.5658C95.6058 33.8008 95.5797 34.1142 95.5275 34.5058C95.4753 34.8844 95.3969 35.2826 95.2925 35.7004C95.2011 36.1051 95.0836 36.4968 94.94 36.8754C94.7964 37.241 94.6332 37.5282 94.4504 37.7371C94.3851 37.8285 94.2481 37.9329 94.0392 38.0504C93.8303 38.1549 93.5953 38.2658 93.3342 38.3833C93.0861 38.5008 92.8381 38.6249 92.59 38.7554C92.3419 38.8729 92.1461 38.9904 92.0025 39.1079C91.8458 39.2254 91.6696 39.3886 91.4738 39.5975C91.2779 39.7933 91.069 40.0022 90.8471 40.2242C90.6382 40.4331 90.4293 40.6354 90.2204 40.8312C90.0115 41.0271 89.8157 41.1837 89.6329 41.3012C89.4893 41.4187 89.3 41.5232 89.065 41.6146C88.8431 41.6929 88.6211 41.8039 88.3992 41.9475C88.2425 42.0519 88.1119 42.1564 88.0075 42.2608C87.9161 42.3783 87.8247 42.4828 87.7333 42.5742C87.6419 42.6656 87.544 42.7374 87.4396 42.7896C87.3482 42.8418 87.2242 42.8679 87.0675 42.8679C86.8194 42.8679 86.5322 42.8483 86.2058 42.8092C85.8794 42.7831 85.5335 42.7504 85.1679 42.7112C84.8024 42.6721 84.4303 42.6329 84.0517 42.5937C83.6731 42.5676 83.301 42.5546 82.9354 42.5546C82.6482 42.5546 82.3675 42.5872 82.0933 42.6525C81.8322 42.7178 81.5776 42.7896 81.3296 42.8679C81.0946 42.9462 80.8726 43.0181 80.6638 43.0833C80.4549 43.1486 80.2656 43.1812 80.0958 43.1812C79.6911 43.1812 79.2342 43.1029 78.725 42.9462C78.2289 42.7896 77.7328 42.659 77.2367 42.5546C77.0278 42.5154 76.7928 42.4762 76.5317 42.4371C76.2706 42.411 76.0029 42.3783 75.7288 42.3392C75.4676 42.3131 75.2065 42.2739 74.9454 42.2217C74.6974 42.1825 74.4754 42.1303 74.2796 42.065C74.1621 42.0258 74.0576 41.9671 73.9663 41.8887C73.8749 41.8104 73.7704 41.7256 73.6529 41.6342C73.5485 41.5297 73.4244 41.4318 73.2808 41.3404C73.1503 41.236 72.9871 41.1446 72.7913 41.0662C72.3604 40.9096 71.9883 40.7986 71.675 40.7333C71.3747 40.655 71.1201 40.5506 70.9113 40.42C70.7154 40.2764 70.5718 40.061 70.4804 39.7737C70.389 39.4735 70.3433 39.01 70.3433 38.3833C70.3433 37.7567 70.4021 37.254 70.5196 36.8754C70.6371 36.4837 70.8199 36.2879 71.0679 36.2879C71.1854 36.2879 71.3094 36.314 71.44 36.3662C71.5706 36.4054 71.7011 36.4576 71.8317 36.5229C71.9622 36.5751 72.0797 36.6274 72.1842 36.6796C72.3017 36.7187 72.3996 36.7383 72.4779 36.7383C72.6868 36.7383 72.8565 36.6339 72.9871 36.425C73.1307 36.2161 73.2417 35.9485 73.32 35.6221C73.3983 35.2826 73.4506 34.9106 73.4767 34.5058C73.5028 34.0881 73.5158 33.6703 73.5158 33.2525C73.5158 32.4822 73.4963 31.7381 73.4571 31.02C73.4179 30.2889 73.3983 29.721 73.3983 29.3162C73.3983 29.1596 73.4114 29.016 73.4375 28.8854C73.4636 28.7418 73.4963 28.6047 73.5354 28.4742C73.5746 28.3436 73.6072 28.2 73.6333 28.0433C73.6594 27.8867 73.6725 27.7104 73.6725 27.5146C73.6725 26.9662 73.6464 26.3592 73.5942 25.6933C73.5419 25.0144 73.5158 24.3617 73.5158 23.735C73.5158 23.5783 73.5224 23.376 73.5354 23.1279C73.5615 22.8799 73.5876 22.6253 73.6138 22.3642C73.6399 22.1031 73.6594 21.855 73.6725 21.62C73.6986 21.3719 73.7117 21.1696 73.7117 21.0129C73.7117 20.8693 73.6399 20.7714 73.4963 20.7192C73.3657 20.6539 73.196 20.6082 72.9871 20.5821C72.7782 20.5429 72.5497 20.5103 72.3017 20.4842C72.0667 20.445 71.8447 20.3732 71.6358 20.2687C71.4269 20.1643 71.2507 20.0142 71.1071 19.8183C70.9765 19.6225 70.9113 19.3483 70.9113 18.9958C70.9113 18.6956 71.0222 18.4149 71.2442 18.1537C71.4792 17.8796 71.7794 17.625 72.145 17.39C72.5106 17.155 72.9153 16.9396 73.3592 16.7437C73.8031 16.5349 74.2404 16.3521 74.6713 16.1954C75.1021 16.0257 75.5068 15.8821 75.8854 15.7646C76.264 15.634 76.5578 15.5231 76.7667 15.4317C77.2106 15.2489 77.6218 15.0596 78.0004 14.8637C78.3921 14.6549 78.6989 14.5504 78.9208 14.5504C79.1428 14.5504 79.3386 14.6026 79.5083 14.7071C79.6911 14.7985 79.8869 14.8442 80.0958 14.8442C80.2525 14.8311 80.4092 14.7919 80.5658 14.7267C80.7225 14.6483 80.8857 14.57 81.0554 14.4917C81.2251 14.4133 81.4014 14.3481 81.5842 14.2958C81.7669 14.2306 81.9628 14.1979 82.1717 14.1979C82.4719 14.1979 82.7265 14.2371 82.9354 14.3154C83.1574 14.3937 83.3532 14.4917 83.5229 14.6092C83.7057 14.7267 83.8819 14.8507 84.0517 14.9812C84.2214 15.1118 84.4238 15.2228 84.6588 15.3142C84.9068 15.4317 85.1614 15.5035 85.4225 15.5296C85.6836 15.5426 85.9251 15.5949 86.1471 15.6862C86.6954 15.9082 87.185 16.1432 87.6158 16.3912C88.0597 16.6262 88.4644 16.8874 88.83 17.1746C89.2086 17.4618 89.5611 17.7817 89.8875 18.1342C90.2139 18.4736 90.5468 18.8587 90.8863 19.2896C91.1213 19.5899 91.4019 19.8706 91.7283 20.1317C92.0547 20.3797 92.3093 20.6343 92.4921 20.8954C92.6226 21.0912 92.7663 21.3458 92.9229 21.6592C93.0796 21.9725 93.2297 22.3054 93.3733 22.6579C93.53 23.0104 93.6801 23.3694 93.8238 23.735C93.9674 24.0875 94.0979 24.4204 94.2154 24.7337C94.346 25.0993 94.4896 25.5171 94.6463 25.9871C94.816 26.444 94.9726 26.9336 95.1163 27.4558C95.2729 27.9781 95.3969 28.5133 95.4883 29.0617C95.5928 29.61 95.6581 30.1453 95.6842 30.6675ZM87.2633 31.0396C87.3808 30.5565 87.4396 30.0996 87.4396 29.6687C87.4396 29.3162 87.4069 28.9768 87.3417 28.6504C87.2894 28.324 87.2176 28.0107 87.1263 27.7104C87.0479 27.3971 86.9631 27.0903 86.8717 26.79C86.7933 26.4767 86.7281 26.1568 86.6758 25.8304C86.6106 25.491 86.5583 25.1581 86.5192 24.8317C86.4931 24.5053 86.4539 24.1919 86.4017 23.8917C86.3625 23.5914 86.3038 23.3042 86.2254 23.03C86.1471 22.7558 86.0426 22.4947 85.9121 22.2467C85.8338 22.1031 85.7228 21.966 85.5792 21.8354C85.4356 21.6918 85.305 21.5351 85.1875 21.3654C85.0439 21.2087 84.9264 21.039 84.835 20.8562C84.7567 20.6604 84.6588 20.5103 84.5413 20.4058C84.4368 20.3014 84.2475 20.2035 83.9733 20.1121C83.6992 20.0076 83.4315 19.851 83.1704 19.6421C82.9354 19.4593 82.7461 19.2765 82.6025 19.0937C82.4589 18.8979 82.3153 18.7217 82.1717 18.565C82.0281 18.4083 81.8649 18.2843 81.6821 18.1929C81.5124 18.0885 81.2904 18.0362 81.0163 18.0362C80.8204 18.0362 80.6181 18.0558 80.4092 18.095C80.2133 18.1342 80.0306 18.1799 79.8608 18.2321C79.7042 18.2843 79.5736 18.3431 79.4692 18.4083C79.3778 18.4606 79.3321 18.5128 79.3321 18.565C79.3321 18.6694 79.3386 18.8131 79.3517 18.9958C79.3647 19.1786 79.3778 19.3614 79.3908 19.5442C79.4169 19.7269 79.4365 19.9032 79.4496 20.0729C79.4757 20.2296 79.4888 20.3406 79.4888 20.4058C79.4496 21.15 79.3974 21.966 79.3321 22.8537C79.2799 23.7285 79.2538 24.5706 79.2538 25.38C79.2538 25.8761 79.2799 26.3331 79.3321 26.7508C79.3974 27.1556 79.4692 27.5537 79.5475 27.9454C79.6258 28.3371 79.7042 28.7353 79.7825 29.14C79.8739 29.5447 79.9392 29.9756 79.9783 30.4325C80.0436 31.1375 80.135 31.8099 80.2525 32.4496C80.3831 33.0762 80.4483 33.6246 80.4483 34.0946C80.4483 34.4471 80.4288 34.8322 80.3896 35.25C80.3504 35.6547 80.3308 36.066 80.3308 36.4837C80.3308 36.8754 80.37 37.254 80.4483 37.6196C80.6572 37.5935 80.8596 37.5804 81.0554 37.5804C81.2513 37.5804 81.4406 37.5804 81.6233 37.5804H82.25C82.5764 37.5804 82.8897 37.5674 83.19 37.5412C83.5033 37.5151 83.7971 37.4368 84.0713 37.3062C84.3585 37.1757 84.6326 36.9799 84.8938 36.7187C85.1549 36.4446 85.4094 36.0725 85.6575 35.6025C85.7097 35.5111 85.7619 35.3871 85.8142 35.2304C85.8794 35.0607 85.9382 34.8714 85.9904 34.6625C86.0557 34.4536 86.121 34.2317 86.1863 33.9967C86.2646 33.7617 86.3429 33.5267 86.4213 33.2917C86.5518 32.9131 86.7019 32.5279 86.8717 32.1362C87.0544 31.7446 87.185 31.379 87.2633 31.0396Z" fill="white"/>
<path d="M116.168 29.7471C116.194 30.0474 116.214 30.3542 116.227 30.6675C116.24 30.9678 116.247 31.2811 116.247 31.6075C116.247 32.5344 116.201 33.4744 116.11 34.4275C116.018 35.3675 115.914 36.2814 115.796 37.1692C115.757 37.4564 115.705 37.7501 115.64 38.0504C115.587 38.3376 115.561 38.5922 115.561 38.8142C115.561 39.2972 115.607 39.7672 115.698 40.2242C115.79 40.6681 115.835 41.0793 115.835 41.4579C115.835 41.5362 115.783 41.7125 115.679 41.9867C115.574 42.2608 115.405 42.5415 115.17 42.8287C114.948 43.116 114.654 43.3706 114.288 43.5925C113.936 43.8275 113.505 43.945 112.996 43.945C112.408 43.945 112.01 43.7753 111.801 43.4358C111.605 43.0964 111.508 42.6656 111.508 42.1433C111.508 41.7778 111.54 41.3861 111.605 40.9683C111.671 40.5375 111.743 40.1001 111.821 39.6562C111.521 39.7215 111.22 39.8456 110.92 40.0283C110.633 40.2111 110.359 40.3808 110.098 40.5375C109.523 40.8769 108.949 41.236 108.374 41.6146C107.813 41.9932 107.199 42.3392 106.533 42.6525C105.868 42.9658 105.136 43.2269 104.34 43.4358C103.557 43.6447 102.656 43.7492 101.638 43.7492C101.611 43.7492 101.507 43.7492 101.324 43.7492C101.154 43.7622 100.952 43.7622 100.717 43.7492C100.482 43.7361 100.234 43.7035 99.9729 43.6512C99.7249 43.599 99.5029 43.5142 99.3071 43.3967C99.0199 43.1094 98.7392 42.7504 98.465 42.3196C98.2039 41.9018 97.9689 41.4906 97.76 41.0858C97.5642 40.6681 97.4075 40.3025 97.29 39.9892C97.1725 39.6758 97.1138 39.4865 97.1138 39.4212C97.0876 39.356 97.0746 39.2972 97.0746 39.245C97.0746 39.1797 97.0746 39.1144 97.0746 39.0492C97.0746 38.775 97.0942 38.4943 97.1333 38.2071C97.1725 37.9068 97.2182 37.6261 97.2704 37.365C97.3226 37.0908 97.3683 36.8624 97.4075 36.6796C97.4467 36.4837 97.4663 36.3532 97.4663 36.2879C97.4663 35.9615 97.4401 35.6482 97.3879 35.3479C97.3357 35.0346 97.3096 34.6951 97.3096 34.3296C97.3096 34.1599 97.3161 33.9836 97.3292 33.8008C97.3553 33.605 97.401 33.4026 97.4663 33.1937C97.4663 33.1807 97.4989 33.0958 97.5642 32.9392C97.6294 32.7825 97.7013 32.6128 97.7796 32.43C97.871 32.2472 97.9558 32.071 98.0342 31.9012C98.1256 31.7315 98.1908 31.6336 98.23 31.6075C98.3214 31.5292 98.4454 31.4639 98.6021 31.4117C98.7588 31.3594 98.935 31.3072 99.1308 31.255C99.3267 31.2028 99.5225 31.1506 99.7183 31.0983C99.9272 31.0461 100.13 30.9743 100.325 30.8829C100.626 30.7393 100.893 30.5565 101.128 30.3346C101.376 30.1126 101.598 29.9625 101.794 29.8842C101.925 29.8189 102.101 29.7667 102.323 29.7275C102.558 29.6883 102.799 29.6165 103.048 29.5121C103.217 29.4599 103.426 29.3881 103.674 29.2967C103.922 29.1922 104.183 29.1008 104.458 29.0225C104.745 28.9311 105.032 28.8528 105.319 28.7875C105.606 28.7092 105.881 28.6569 106.142 28.6308C106.259 28.6308 106.403 28.6504 106.573 28.6896C106.755 28.7287 106.971 28.7483 107.219 28.7483C107.402 28.7483 107.623 28.7092 107.885 28.6308C108.146 28.5525 108.459 28.5133 108.825 28.5133C109.19 28.5133 109.543 28.5394 109.882 28.5917C110.222 28.6439 110.483 28.67 110.665 28.67C110.809 28.67 110.894 28.6308 110.92 28.5525C110.959 28.4611 110.979 28.3567 110.979 28.2392C110.979 28.0433 110.94 27.8149 110.861 27.5537C110.783 27.2926 110.692 27.0381 110.587 26.79C110.483 26.5419 110.385 26.3265 110.293 26.1437C110.202 25.961 110.137 25.8435 110.098 25.7912C109.902 25.5432 109.68 25.3539 109.432 25.2233C109.197 25.0928 108.981 25.0275 108.785 25.0275C108.577 25.0275 108.368 25.0536 108.159 25.1058C107.963 25.1581 107.741 25.1842 107.493 25.1842C107.31 25.1842 107.121 25.1711 106.925 25.145C106.742 25.1189 106.559 25.1058 106.377 25.1058C105.933 25.1058 105.417 25.2168 104.83 25.4387C104.255 25.6607 103.674 25.9153 103.087 26.2025C102.512 26.4897 101.964 26.7639 101.442 27.025C100.933 27.2731 100.521 27.4362 100.208 27.5146C100.038 27.5537 99.8619 27.5929 99.6792 27.6321C99.4964 27.6582 99.3201 27.6712 99.1504 27.6712C99.046 27.6712 98.8958 27.619 98.7 27.5146C98.5172 27.3971 98.3344 27.2535 98.1517 27.0837C97.9689 26.914 97.8057 26.7247 97.6621 26.5158C97.5315 26.2939 97.4663 26.0785 97.4663 25.8696C97.4663 25.5562 97.5511 25.3017 97.7208 25.1058C97.8906 24.8969 98.0994 24.7207 98.3475 24.5771C98.5956 24.4335 98.8632 24.3094 99.1504 24.205C99.4507 24.0875 99.7183 23.9569 99.9533 23.8133C100.254 23.6306 100.606 23.4151 101.011 23.1671C101.416 22.919 101.762 22.684 102.049 22.4621C102.349 22.214 102.564 21.9921 102.695 21.7962C102.826 21.5874 102.982 21.4307 103.165 21.3262C103.348 21.2218 103.635 21.1239 104.027 21.0325C104.418 20.9411 104.784 20.8432 105.123 20.7387C105.228 20.6996 105.371 20.6408 105.554 20.5625C105.75 20.4842 105.946 20.4124 106.142 20.3471C106.351 20.2818 106.546 20.2231 106.729 20.1708C106.925 20.1186 107.075 20.0925 107.18 20.0925H107.258C107.506 20.1839 107.787 20.2557 108.1 20.3079C108.413 20.3471 108.74 20.3862 109.079 20.4254C109.432 20.4646 109.778 20.5103 110.117 20.5625C110.47 20.6017 110.803 20.6604 111.116 20.7387C111.22 20.7649 111.318 20.8236 111.41 20.915C111.501 20.9933 111.599 21.0521 111.703 21.0912C112.186 21.2349 112.591 21.385 112.918 21.5417C113.244 21.6853 113.531 21.9203 113.779 22.2467C114.027 22.56 114.256 23.0169 114.465 23.6175C114.687 24.205 114.928 25.0079 115.189 26.0262C115.241 26.2612 115.339 26.4767 115.483 26.6725C115.627 26.8683 115.731 27.0642 115.796 27.26C115.901 27.5864 115.979 27.9846 116.031 28.4546C116.097 28.9115 116.142 29.3424 116.168 29.7471ZM111.468 34.9758C111.534 34.9106 111.573 34.7669 111.586 34.545C111.612 34.31 111.625 34.0489 111.625 33.7617C111.625 33.4222 111.618 33.1481 111.605 32.9392C111.592 32.7172 111.566 32.5475 111.527 32.43C111.488 32.3125 111.436 32.2342 111.37 32.195C111.305 32.1428 111.22 32.1167 111.116 32.1167C111.038 32.1167 110.966 32.1232 110.9 32.1362C110.848 32.1493 110.796 32.1624 110.744 32.1754C110.692 32.2015 110.639 32.2211 110.587 32.2342C110.378 32.2081 110.182 32.195 110 32.195C109.83 32.195 109.654 32.195 109.471 32.195C109.105 32.195 108.766 32.2146 108.453 32.2537C108.152 32.2929 107.852 32.3451 107.552 32.4104C107.264 32.4757 106.977 32.5475 106.69 32.6258C106.403 32.7042 106.096 32.776 105.77 32.8412C105.3 32.9587 104.869 33.0371 104.477 33.0762C104.085 33.1154 103.746 33.1937 103.459 33.3112C103.172 33.4287 102.95 33.6181 102.793 33.8792C102.636 34.1272 102.558 34.5189 102.558 35.0542C102.558 35.6025 102.702 35.9746 102.989 36.1704C103.276 36.3532 103.694 36.4446 104.242 36.4446C104.412 36.4446 104.608 36.4185 104.83 36.3662C105.052 36.301 105.287 36.2292 105.535 36.1508C105.796 36.0725 106.057 35.9942 106.318 35.9158C106.592 35.8244 106.866 35.7461 107.14 35.6808C107.336 35.6417 107.545 35.6025 107.767 35.5633C108.002 35.5111 108.231 35.4654 108.453 35.4262C108.688 35.3871 108.903 35.3479 109.099 35.3087C109.308 35.2696 109.484 35.2369 109.628 35.2108C109.719 35.1978 109.863 35.1847 110.058 35.1717C110.254 35.1456 110.45 35.126 110.646 35.1129C110.842 35.0868 111.018 35.0672 111.175 35.0542C111.344 35.0281 111.442 35.0019 111.468 34.9758Z" fill="white"/>
<path d="M142.449 22.6579C142.449 22.8929 142.403 23.1214 142.312 23.3433C142.234 23.5522 142.162 23.8199 142.097 24.1462C142.018 24.5249 141.953 24.9753 141.901 25.4975C141.849 26.0067 141.777 26.5419 141.685 27.1033C141.646 27.3906 141.594 27.6517 141.529 27.8867C141.463 28.1217 141.398 28.3501 141.333 28.5721C141.281 28.794 141.235 29.0225 141.196 29.2575C141.157 29.4794 141.137 29.7275 141.137 30.0017C141.137 30.2758 141.111 30.5108 141.059 30.7067C141.02 30.9025 140.967 31.0853 140.902 31.255C140.85 31.4247 140.798 31.5879 140.745 31.7446C140.706 31.9012 140.687 32.0775 140.687 32.2733C140.687 32.4039 140.693 32.5279 140.706 32.6454C140.719 32.7629 140.726 32.8804 140.726 32.9979C140.726 33.3504 140.674 33.6899 140.569 34.0162C140.478 34.3296 140.367 34.6364 140.236 34.9367C140.119 35.2239 140.008 35.5111 139.903 35.7983C139.812 36.0725 139.766 36.3467 139.766 36.6208C139.766 36.7644 139.773 36.9015 139.786 37.0321C139.799 37.1626 139.805 37.2932 139.805 37.4237C139.805 37.9721 139.721 38.3964 139.551 38.6967C139.381 38.9969 139.153 39.2254 138.865 39.3821C138.578 39.5257 138.252 39.6301 137.886 39.6954C137.521 39.7476 137.142 39.7999 136.75 39.8521C136.476 39.9043 136.163 39.9631 135.81 40.0283C135.471 40.0806 135.132 40.1067 134.792 40.1067C134.296 40.1067 133.891 39.9826 133.578 39.7346C133.278 39.4735 132.971 39.0818 132.658 38.5596C132.344 38.0374 131.972 37.3846 131.541 36.6012C131.123 35.8049 130.549 34.8714 129.818 33.8008C129.57 34.1011 129.381 34.4275 129.25 34.78C129.133 35.1325 129.035 35.5046 128.956 35.8962C128.878 36.2879 128.806 36.7057 128.741 37.1496C128.676 37.5804 128.578 38.0308 128.447 38.5008C128.421 38.6053 128.362 38.7032 128.271 38.7946C128.179 38.886 128.121 39.0035 128.095 39.1471C128.029 39.3299 127.958 39.5257 127.879 39.7346C127.801 39.9435 127.683 40.1458 127.527 40.3417C127.383 40.5244 127.187 40.6811 126.939 40.8117C126.691 40.9292 126.371 40.9879 125.98 40.9879C125.758 40.9879 125.51 40.9683 125.235 40.9292C124.961 40.89 124.615 40.8704 124.198 40.8704C123.936 40.8704 123.701 40.8835 123.493 40.9096C123.297 40.9357 123.107 40.9487 122.925 40.9487C122.663 40.9487 122.474 40.9031 122.357 40.8117C122.252 40.7203 122.174 40.5832 122.122 40.4004C122.069 40.2176 122.024 39.9892 121.985 39.715C121.945 39.4408 121.867 39.1144 121.75 38.7358C121.645 38.4094 121.521 38.1092 121.378 37.835C121.234 37.5478 121.123 37.2736 121.045 37.0125C120.94 36.6992 120.855 36.3728 120.79 36.0333C120.725 35.6808 120.659 35.3349 120.594 34.9954C120.542 34.6429 120.483 34.3035 120.418 33.9771C120.353 33.6507 120.268 33.3374 120.163 33.0371C120.02 32.6976 119.837 32.43 119.615 32.2342C119.406 32.0253 119.249 31.8033 119.145 31.5683C119.041 31.3203 118.936 31.0331 118.832 30.7067C118.74 30.3803 118.649 30.0408 118.558 29.6883C118.466 29.3358 118.368 28.9833 118.264 28.6308C118.159 28.2653 118.042 27.9193 117.911 27.5929C117.872 27.4885 117.813 27.3449 117.735 27.1621C117.657 26.9793 117.578 26.7769 117.5 26.555C117.435 26.3331 117.369 26.1046 117.304 25.8696C117.252 25.6215 117.226 25.38 117.226 25.145C117.226 24.7403 117.324 24.4335 117.52 24.2246C117.728 24.0157 117.983 23.8525 118.283 23.735C118.584 23.6175 118.91 23.5261 119.263 23.4608C119.628 23.3825 119.968 23.2715 120.281 23.1279C120.633 22.9712 120.914 22.8146 121.123 22.6579C121.345 22.4882 121.56 22.3381 121.769 22.2075C121.978 22.0639 122.213 21.9529 122.474 21.8746C122.735 21.7832 123.075 21.7375 123.493 21.7375C123.949 21.7375 124.308 21.7701 124.57 21.8354C124.844 21.8876 125.046 21.979 125.177 22.1096C125.307 22.2401 125.386 22.4099 125.412 22.6187C125.451 22.8146 125.47 23.0561 125.47 23.3433C125.483 23.6175 125.49 23.9374 125.49 24.3029C125.49 24.6554 125.529 25.0536 125.608 25.4975C125.751 26.3069 125.888 27.1294 126.019 27.965C126.149 28.7875 126.254 29.5708 126.332 30.315C126.658 30.0669 126.913 29.7406 127.096 29.3358C127.279 28.9311 127.429 28.5068 127.546 28.0629C127.664 27.606 127.781 27.149 127.899 26.6921C128.029 26.2351 128.206 25.8239 128.428 25.4583C128.649 25.0928 128.943 24.799 129.309 24.5771C129.687 24.3421 130.19 24.2246 130.817 24.2246C131.221 24.2246 131.561 24.3421 131.835 24.5771C132.122 24.799 132.37 25.0797 132.579 25.4192C132.788 25.7456 132.977 26.1111 133.147 26.5158C133.317 26.9075 133.493 27.2665 133.676 27.5929C134.041 28.2718 134.4 28.8985 134.753 29.4729C135.118 30.0474 135.491 30.5826 135.869 31.0787C135.974 30.426 136.039 29.7862 136.065 29.1596C136.104 28.5199 136.124 27.8736 136.124 27.2208C136.124 26.9597 136.117 26.6986 136.104 26.4375C136.091 26.1764 136.085 25.9153 136.085 25.6542C136.085 25.0275 136.085 24.3617 136.085 23.6567C136.085 22.9386 136.137 22.2728 136.241 21.6592C136.346 21.0456 136.528 20.5364 136.79 20.1317C137.051 19.7269 137.442 19.5246 137.965 19.5246C138.213 19.5246 138.493 19.5507 138.807 19.6029C139.12 19.6551 139.427 19.7204 139.727 19.7987C140.04 19.864 140.315 19.9424 140.55 20.0337C140.798 20.1251 140.98 20.21 141.098 20.2883C141.15 20.3406 141.248 20.4646 141.392 20.6604C141.548 20.8432 141.698 21.0586 141.842 21.3067C141.999 21.5547 142.136 21.8028 142.253 22.0508C142.371 22.2989 142.436 22.5012 142.449 22.6579Z" fill="white"/>
<path d="M171.433 32.1558C171.433 32.8869 171.38 33.6572 171.276 34.4667C171.171 35.2761 171.021 36.0399 170.825 36.7579C170.643 37.476 170.408 38.1026 170.12 38.6379C169.846 39.1601 169.533 39.5126 169.18 39.6954C169.037 39.7737 168.828 39.8586 168.554 39.95C168.293 40.0283 167.992 40.1001 167.653 40.1654C167.327 40.2307 166.987 40.2829 166.635 40.3221C166.282 40.3612 165.943 40.3808 165.616 40.3808C165.407 40.3808 165.153 40.3417 164.853 40.2633C164.552 40.185 164.265 40.0675 163.991 39.9108C163.717 39.7411 163.482 39.5387 163.286 39.3037C163.103 39.0557 163.012 38.775 163.012 38.4617C163.012 38.2006 163.005 37.9329 162.992 37.6587C162.979 37.3846 162.973 37.1169 162.973 36.8558C162.973 36.0072 162.986 35.1325 163.012 34.2317C163.038 33.3178 163.051 32.3843 163.051 31.4312C163.051 30.5435 163.025 29.6492 162.973 28.7483C162.933 27.8475 162.855 26.9271 162.738 25.9871C162.437 26.1829 162.163 26.4375 161.915 26.7508C161.68 27.0642 161.452 27.4036 161.23 27.7692C161.021 28.1217 160.818 28.4872 160.623 28.8658C160.427 29.2444 160.218 29.5969 159.996 29.9233C159.8 30.2236 159.565 30.4782 159.291 30.6871C159.017 30.896 158.801 31.131 158.645 31.3921C158.488 31.6532 158.397 31.9078 158.37 32.1558C158.344 32.4039 158.279 32.6258 158.175 32.8217C158.07 33.0044 157.881 33.1546 157.607 33.2721C157.333 33.3765 156.876 33.4222 156.236 33.4092C155.831 33.4092 155.511 33.3374 155.276 33.1937C155.054 33.0501 154.858 32.8543 154.689 32.6062C154.519 32.3451 154.356 32.0514 154.199 31.725C154.043 31.3986 153.84 31.0461 153.592 30.6675C153.448 30.4717 153.292 30.3019 153.122 30.1583C152.965 30.0147 152.828 29.8515 152.711 29.6687C152.554 29.4207 152.391 29.14 152.221 28.8267C152.052 28.5133 151.888 28.1935 151.732 27.8671C151.575 27.5407 151.418 27.2143 151.262 26.8879C151.118 26.5615 150.981 26.2612 150.85 25.9871C150.877 26.4832 150.896 26.9924 150.909 27.5146C150.922 28.0368 150.929 28.5851 150.929 29.1596V31.3921C150.929 31.8751 150.929 32.3582 150.929 32.8412C150.942 33.3243 150.961 33.7943 150.988 34.2512C151.001 34.5254 151.033 34.8061 151.085 35.0933C151.138 35.3806 151.19 35.6743 151.242 35.9746C151.307 36.2749 151.366 36.5751 151.418 36.8754C151.471 37.1757 151.497 37.4629 151.497 37.7371C151.497 38.0112 151.471 38.2136 151.418 38.3442C151.379 38.4747 151.314 38.5922 151.223 38.6967C151.131 38.7881 151.014 38.886 150.87 38.9904C150.739 39.0949 150.576 39.2515 150.38 39.4604C150.185 39.6693 150.002 39.8912 149.832 40.1262C149.675 40.3612 149.499 40.5767 149.303 40.7725C149.108 40.9683 148.892 41.1315 148.657 41.2621C148.422 41.3926 148.141 41.4579 147.815 41.4579C147.397 41.4579 146.973 41.3992 146.542 41.2817C146.111 41.1642 145.713 41.001 145.348 40.7921C144.982 40.5701 144.682 40.3025 144.447 39.9892C144.225 39.6758 144.114 39.3233 144.114 38.9317C144.114 38.4356 144.173 37.8285 144.29 37.1104C144.421 36.3924 144.486 35.6221 144.486 34.7996C144.486 34.4862 144.505 34.2251 144.545 34.0162C144.584 33.7943 144.629 33.5919 144.682 33.4092C144.747 33.2133 144.812 33.024 144.878 32.8412C144.943 32.6454 144.995 32.4169 145.034 32.1558C145.099 31.7642 145.145 31.3399 145.171 30.8829C145.21 30.426 145.243 29.956 145.269 29.4729C145.295 28.9768 145.315 28.4742 145.328 27.965C145.354 27.4558 145.38 26.9532 145.406 26.4571C145.419 26.2221 145.445 25.9936 145.485 25.7717C145.537 25.5497 145.583 25.3212 145.622 25.0862C145.674 24.8512 145.713 24.6097 145.739 24.3617C145.778 24.1136 145.798 23.8394 145.798 23.5392C145.798 23.265 145.772 23.0104 145.72 22.7754C145.68 22.5404 145.635 22.2989 145.583 22.0508C145.53 21.8028 145.478 21.5417 145.426 21.2675C145.387 20.9803 145.367 20.6539 145.367 20.2883C145.367 20.0533 145.4 19.7987 145.465 19.5246C145.543 19.2374 145.635 18.9436 145.739 18.6433C145.844 18.33 145.955 18.0101 146.072 17.6837C146.19 17.3574 146.301 17.0244 146.405 16.685C146.457 16.5153 146.49 16.3456 146.503 16.1758C146.516 16.0061 146.523 15.8494 146.523 15.7058C146.523 15.5492 146.529 15.4186 146.542 15.3142C146.555 15.2097 146.588 15.1314 146.64 15.0792C146.666 15.0269 146.751 14.9682 146.895 14.9029C147.038 14.8376 147.188 14.7724 147.345 14.7071C147.515 14.6287 147.671 14.57 147.815 14.5308C147.972 14.4786 148.076 14.446 148.128 14.4329C148.311 14.4329 148.474 14.4917 148.618 14.6092C148.775 14.7136 148.983 14.7919 149.245 14.8442C149.623 14.9225 149.995 14.9747 150.361 15.0008C150.739 15.0269 151.085 15.0596 151.399 15.0987C151.725 15.1379 152.019 15.1967 152.28 15.275C152.554 15.3533 152.776 15.4904 152.946 15.6862C153.129 15.8821 153.298 16.1367 153.455 16.45C153.612 16.7503 153.762 17.0701 153.905 17.4096C154.062 17.749 154.212 18.095 154.356 18.4475C154.513 18.8 154.669 19.1199 154.826 19.4071C154.969 19.6682 155.139 19.9097 155.335 20.1317C155.531 20.3406 155.681 20.556 155.785 20.7779C155.864 20.9215 155.909 21.0912 155.923 21.2871C155.936 21.4699 155.988 21.6331 156.079 21.7767C156.118 21.8681 156.242 22.0965 156.451 22.4621C156.66 22.8276 156.889 23.2193 157.137 23.6371C157.398 24.0418 157.633 24.4074 157.842 24.7337C158.064 25.0601 158.207 25.2233 158.273 25.2233C158.429 25.2233 158.573 25.1124 158.703 24.8904C158.847 24.6685 158.984 24.3943 159.115 24.0679C159.245 23.7415 159.382 23.3956 159.526 23.03C159.669 22.6514 159.826 22.3119 159.996 22.0117C160.205 21.6722 160.44 21.3524 160.701 21.0521C160.962 20.7387 161.184 20.3928 161.367 20.0142C161.484 19.7661 161.602 19.4462 161.719 19.0546C161.85 18.6629 161.987 18.2517 162.13 17.8208C162.274 17.3769 162.431 16.9331 162.6 16.4892C162.783 16.0453 162.986 15.6471 163.208 15.2946C163.429 14.929 163.678 14.6353 163.952 14.4133C164.226 14.1914 164.539 14.0804 164.892 14.0804C165.061 14.0804 165.205 14.1065 165.323 14.1587C165.44 14.1979 165.558 14.2567 165.675 14.335C165.806 14.4133 165.949 14.4982 166.106 14.5896C166.263 14.681 166.458 14.7658 166.693 14.8442C166.915 14.9094 167.137 14.9617 167.359 15.0008C167.594 15.04 167.816 15.0792 168.025 15.1183C168.234 15.1575 168.423 15.2097 168.593 15.275C168.776 15.3272 168.932 15.4186 169.063 15.5492C169.193 15.6928 169.298 15.8756 169.376 16.0975C169.455 16.3194 169.513 16.561 169.553 16.8221C169.605 17.0832 169.637 17.3639 169.65 17.6642C169.677 17.9644 169.696 18.2647 169.709 18.565C169.709 19.0089 169.696 19.4397 169.67 19.8575C169.644 20.2622 169.631 20.6474 169.631 21.0129C169.631 21.3132 169.65 21.5743 169.69 21.7962C169.742 22.0182 169.794 22.2467 169.846 22.4817C169.912 22.7036 169.97 22.9582 170.023 23.2454C170.075 23.5326 170.101 23.8851 170.101 24.3029C170.101 24.7076 170.088 25.1319 170.062 25.5758C170.036 26.0067 170.023 26.4244 170.023 26.8292C170.023 27.3253 170.055 27.7235 170.12 28.0237C170.199 28.311 170.29 28.5525 170.395 28.7483C170.499 28.9442 170.61 29.1269 170.728 29.2967C170.845 29.4664 170.949 29.6753 171.041 29.9233C171.08 30.0278 171.119 30.1779 171.158 30.3737C171.198 30.5696 171.237 30.7785 171.276 31.0004C171.315 31.2093 171.348 31.4182 171.374 31.6271C171.4 31.836 171.419 32.0122 171.433 32.1558Z" fill="white"/>
<path d="M191.016 37.2867C191.042 37.5478 191.068 37.7893 191.094 38.0112C191.133 38.2332 191.153 38.4356 191.153 38.6183C191.153 38.8272 191.14 38.9839 191.114 39.0883C191.088 39.1928 191.042 39.2842 190.977 39.3625C190.924 39.4408 190.846 39.5257 190.742 39.6171C190.65 39.7085 190.533 39.8456 190.389 40.0283C190.233 40.2764 190.076 40.5375 189.919 40.8117C189.776 41.0858 189.599 41.3339 189.39 41.5558C189.195 41.7778 188.96 41.9606 188.685 42.1042C188.424 42.2608 188.104 42.3392 187.726 42.3392C187.491 42.3392 187.236 42.3196 186.962 42.2804C186.701 42.2543 186.433 42.2217 186.159 42.1825C185.898 42.1433 185.637 42.1042 185.376 42.065C185.128 42.0389 184.899 42.0258 184.69 42.0258C183.79 42.0258 182.876 42.0128 181.949 41.9867C181.035 41.9475 180.167 41.83 179.344 41.6342C179.07 41.5558 178.783 41.4906 178.483 41.4383C178.182 41.3731 177.882 41.3012 177.582 41.2229C177.281 41.1446 176.994 41.0532 176.72 40.9487C176.446 40.8312 176.211 40.6942 176.015 40.5375C175.454 39.9761 175.003 39.3625 174.664 38.6967C174.337 38.0308 174.076 37.2801 173.88 36.4446C173.698 35.609 173.567 34.6821 173.489 33.6637C173.41 32.6454 173.345 31.5031 173.293 30.2367C173.267 29.7928 173.221 29.3685 173.156 28.9637C173.091 28.559 173.058 28.2457 173.058 28.0237C173.058 27.9193 173.104 27.7561 173.195 27.5342C173.299 27.3122 173.371 27.1033 173.41 26.9075C173.476 26.6203 173.502 26.3396 173.489 26.0654C173.489 25.7782 173.502 25.6019 173.528 25.5367C173.567 25.4453 173.645 25.3408 173.763 25.2233C173.893 25.0928 174.031 24.9557 174.174 24.8121C174.331 24.6685 174.481 24.5249 174.625 24.3812C174.781 24.2246 174.912 24.0744 175.016 23.9308C175.108 23.8003 175.33 23.6436 175.682 23.4608C176.048 23.265 176.498 23.0561 177.033 22.8342C177.569 22.6122 178.169 22.3968 178.835 22.1879C179.501 21.966 180.18 21.7701 180.872 21.6004C181.577 21.4176 182.275 21.274 182.967 21.1696C183.672 21.0521 184.325 20.9868 184.925 20.9737C185.173 20.9737 185.448 21.0194 185.748 21.1108C186.061 21.2022 186.368 21.3262 186.668 21.4829C186.982 21.6265 187.282 21.7962 187.569 21.9921C187.856 22.1879 188.098 22.3837 188.294 22.5796C188.398 22.684 188.496 22.8603 188.588 23.1083C188.679 23.3433 188.783 23.5392 188.901 23.6958C189.188 24.0614 189.384 24.3356 189.488 24.5183C189.606 24.7011 189.678 24.8643 189.704 25.0079C189.743 25.1515 189.756 25.3082 189.743 25.4779C189.73 25.6476 189.743 25.9087 189.782 26.2612C189.808 26.5354 189.828 26.7639 189.841 26.9467C189.854 27.1294 189.86 27.2992 189.86 27.4558C189.86 27.6125 189.86 27.7626 189.86 27.9062C189.86 28.0499 189.86 28.2131 189.86 28.3958C189.86 28.7744 189.763 29.0812 189.567 29.3162C189.371 29.5512 189.103 29.7667 188.764 29.9625C188.424 30.1583 188.013 30.3476 187.53 30.5304C187.06 30.7132 186.551 30.9351 186.003 31.1962C185.546 31.4182 185.056 31.5749 184.534 31.6662C184.012 31.7576 183.528 31.8033 183.085 31.8033C183.019 31.8033 182.967 31.8033 182.928 31.8033C182.889 31.8033 182.837 31.7903 182.771 31.7642C182.68 31.7511 182.523 31.7772 182.301 31.8425C182.079 31.9078 181.825 31.9861 181.538 32.0775C181.25 32.1558 180.937 32.2342 180.598 32.3125C180.271 32.3778 179.951 32.4104 179.638 32.4104C179.429 32.4104 179.227 32.4431 179.031 32.5083C178.848 32.5606 178.685 32.6324 178.541 32.7237C178.398 32.8151 178.28 32.9065 178.189 32.9979C178.11 33.0893 178.071 33.1742 178.071 33.2525C178.071 33.7094 178.15 34.075 178.306 34.3492C178.476 34.6233 178.659 34.8322 178.855 34.9758C179.09 35.1456 179.351 35.2631 179.638 35.3283C179.964 35.4719 180.278 35.5699 180.578 35.6221C180.878 35.6612 181.178 35.6808 181.479 35.6808C181.975 35.6808 182.491 35.6417 183.026 35.5633C183.574 35.485 184.194 35.4458 184.886 35.4458C185.213 35.4458 185.487 35.485 185.709 35.5633C185.944 35.6417 186.192 35.6808 186.453 35.6808C186.727 35.6808 187.001 35.6547 187.275 35.6025C187.55 35.5503 187.811 35.4915 188.059 35.4262C188.307 35.361 188.542 35.3022 188.764 35.25C188.999 35.1978 189.214 35.1717 189.41 35.1717C189.919 35.1717 190.285 35.3479 190.507 35.7004C190.742 36.0399 190.911 36.5686 191.016 37.2867ZM183.437 28.2783C183.463 28.2131 183.483 28.1412 183.496 28.0629C183.509 27.9846 183.515 27.9062 183.515 27.8279C183.515 27.4362 183.476 27.0903 183.398 26.79C183.333 26.4767 183.248 26.2156 183.143 26.0067C183.052 25.7847 182.948 25.6215 182.83 25.5171C182.713 25.3996 182.608 25.3408 182.517 25.3408C182.269 25.3408 181.897 25.3931 181.4 25.4975C180.904 25.5889 180.402 25.7064 179.893 25.85C179.383 25.9936 178.92 26.1503 178.502 26.32C178.097 26.4897 177.849 26.6464 177.758 26.79C177.693 26.8944 177.647 27.0511 177.621 27.26C177.595 27.4558 177.582 27.6843 177.582 27.9454C177.582 28.4937 177.614 28.9181 177.68 29.2183C177.758 29.5186 177.888 29.6687 178.071 29.6687C178.189 29.6687 178.319 29.6492 178.463 29.61C178.607 29.5708 178.744 29.5317 178.874 29.4925C179.018 29.4403 179.142 29.3946 179.246 29.3554C179.364 29.3162 179.455 29.2901 179.52 29.2771C179.808 29.2249 180.16 29.1857 180.578 29.1596C180.996 29.1335 181.4 29.0943 181.792 29.0421C182.197 28.9768 182.549 28.8919 182.85 28.7875C183.163 28.67 183.359 28.5003 183.437 28.2783Z" fill="white"/>
<path d="M210.775 38.3833C210.749 38.5922 210.645 38.8403 210.462 39.1275C210.279 39.4147 210.064 39.6954 209.816 39.9696C209.581 40.2437 209.333 40.4983 209.072 40.7333C208.811 40.9683 208.602 41.1315 208.445 41.2229C208.145 41.4057 207.851 41.5428 207.564 41.6342C207.277 41.7125 206.983 41.7517 206.683 41.7517C206.017 41.7517 205.403 41.5362 204.842 41.1054C204.737 41.0271 204.626 40.8835 204.509 40.6746C204.404 40.4526 204.274 40.2633 204.117 40.1067C203.934 39.95 203.725 39.7737 203.49 39.5779C203.255 39.3821 203.02 39.1797 202.785 38.9708C202.55 38.7489 202.328 38.5269 202.12 38.305C201.911 38.0831 201.747 37.8676 201.63 37.6587C201.499 37.4237 201.356 37.1365 201.199 36.7971C201.056 36.4576 200.905 36.1312 200.749 35.8179C200.605 35.5046 200.455 35.2369 200.298 35.015C200.155 34.7931 200.011 34.6821 199.868 34.6821C199.763 34.6821 199.659 34.7669 199.554 34.9367C199.463 35.1064 199.326 35.3414 199.143 35.6417C199.078 35.7722 198.993 35.8636 198.888 35.9158C198.784 35.955 198.706 36.0268 198.653 36.1312C198.588 36.2879 198.562 36.4381 198.575 36.5817C198.588 36.7122 198.575 36.8167 198.536 36.895C198.471 36.9733 198.366 37.0256 198.223 37.0517C198.092 37.0778 197.988 37.1431 197.909 37.2475C197.805 37.3781 197.694 37.5674 197.576 37.8154C197.459 38.0504 197.335 38.2985 197.204 38.5596C197.074 38.8207 196.943 39.0687 196.813 39.3037C196.682 39.5387 196.551 39.7215 196.421 39.8521C196.316 39.9565 196.166 40.0544 195.97 40.1458C195.788 40.2242 195.605 40.3417 195.422 40.4983C195.2 40.6681 194.946 40.8443 194.658 41.0271C194.384 41.2099 194.077 41.3012 193.738 41.3012C193.594 41.3012 193.418 41.2621 193.209 41.1837C193.013 41.1054 192.818 41.001 192.622 40.8704C192.439 40.7268 192.282 40.5571 192.152 40.3612C192.021 40.1524 191.956 39.9304 191.956 39.6954C191.956 39.5518 192.008 39.3951 192.113 39.2254C192.23 39.0426 192.302 38.8403 192.328 38.6183C192.432 37.9656 192.622 37.3324 192.896 36.7187C193.17 36.0921 193.607 35.5372 194.208 35.0542C194.352 34.9106 194.515 34.8061 194.698 34.7408C194.893 34.6625 195.05 34.5515 195.168 34.4079C195.468 34.1076 195.709 33.7682 195.892 33.3896C196.075 33.011 196.29 32.5736 196.538 32.0775C196.578 32.0122 196.63 31.9274 196.695 31.8229C196.773 31.7185 196.845 31.614 196.91 31.5096C196.989 31.4051 197.054 31.3072 197.106 31.2158C197.158 31.1114 197.185 31.0265 197.185 30.9612C197.172 30.8568 197.145 30.7785 197.106 30.7262C197.08 30.674 197.034 30.6283 196.969 30.5892C196.917 30.55 196.852 30.5043 196.773 30.4521C196.708 30.3868 196.63 30.3019 196.538 30.1975C196.421 30.0539 196.316 29.9233 196.225 29.8058C196.147 29.6753 196.068 29.5447 195.99 29.4142C195.925 29.2836 195.846 29.1531 195.755 29.0225C195.664 28.8919 195.553 28.7483 195.422 28.5917C195.331 28.4872 195.2 28.4024 195.03 28.3371C194.874 28.2718 194.763 28.1935 194.698 28.1021C194.528 27.8801 194.397 27.6125 194.306 27.2992C194.214 26.9728 194.09 26.666 193.934 26.3787C193.751 26.0785 193.555 25.8304 193.346 25.6346C193.15 25.4257 192.968 25.2364 192.798 25.0667C192.628 24.8839 192.485 24.7011 192.367 24.5183C192.263 24.3356 192.21 24.1136 192.21 23.8525C192.21 23.4347 192.361 23.1083 192.661 22.8733C192.974 22.6253 193.359 22.5012 193.816 22.5012C194.338 22.5012 194.776 22.6318 195.128 22.8929C195.481 23.141 195.794 23.4412 196.068 23.7937C196.356 24.1462 196.63 24.5183 196.891 24.91C197.152 25.2886 197.446 25.6085 197.772 25.8696C197.89 25.961 198.027 26.0654 198.183 26.1829C198.34 26.2874 198.503 26.3918 198.673 26.4962C198.843 26.6007 198.999 26.6921 199.143 26.7704C199.287 26.8357 199.404 26.8683 199.495 26.8683C199.469 26.8683 199.541 26.8031 199.711 26.6725C199.894 26.5419 200.103 26.3657 200.338 26.1437C200.573 25.9218 200.801 25.6672 201.023 25.38C201.258 25.0928 201.421 24.799 201.512 24.4987C201.578 24.2507 201.604 24.0157 201.591 23.7937C201.591 23.5587 201.643 23.3368 201.747 23.1279C201.787 23.0365 201.93 22.8668 202.178 22.6187C202.426 22.3576 202.701 22.0835 203.001 21.7962C203.314 21.509 203.621 21.2414 203.921 20.9933C204.222 20.7453 204.45 20.5886 204.607 20.5233C204.868 20.4189 205.135 20.3667 205.41 20.3667C205.697 20.3667 205.932 20.3536 206.115 20.3275C206.65 20.3275 207.048 20.4581 207.309 20.7192C207.583 20.9672 207.72 21.3719 207.72 21.9333C207.72 21.9856 207.701 22.1096 207.662 22.3054C207.636 22.4882 207.59 22.7036 207.525 22.9517C207.472 23.1867 207.394 23.4282 207.29 23.6762C207.198 23.9112 207.087 24.1071 206.957 24.2637C206.878 24.3551 206.748 24.4465 206.565 24.5379C206.382 24.6162 206.147 24.7664 205.86 24.9883C205.586 25.1972 205.253 25.504 204.861 25.9087C204.483 26.3135 204.058 26.8749 203.588 27.5929C203.497 27.7365 203.406 27.8997 203.314 28.0825C203.236 28.2653 203.158 28.4481 203.079 28.6308C203.014 28.8006 202.962 28.9572 202.923 29.1008C202.883 29.2314 202.864 29.3162 202.864 29.3554C202.903 29.4599 202.975 29.5382 203.079 29.5904C203.184 29.6426 203.295 29.6818 203.412 29.7079C203.543 29.734 203.673 29.7667 203.804 29.8058C203.934 29.8319 204.039 29.8842 204.117 29.9625C204.274 30.1061 204.404 30.3346 204.509 30.6479C204.626 30.9482 204.776 31.2093 204.959 31.4312C205.481 32.071 205.964 32.5671 206.408 32.9196C206.852 33.259 207.257 33.5267 207.622 33.7225C207.988 33.9053 208.314 34.0554 208.602 34.1729C208.902 34.2774 209.163 34.4275 209.385 34.6233C209.62 34.8061 209.822 35.0737 209.992 35.4262C210.162 35.7657 210.305 36.2553 210.423 36.895C210.488 37.1953 210.56 37.4694 210.638 37.7175C210.73 37.9525 210.775 38.1744 210.775 38.3833Z" fill="white"/>
<g clip-path="url(#clip0_2047_1863)">
<path d="M11.8689 40.6762C11.3391 40.5032 10.8365 40.2224 10.3797 39.9198C9.92289 39.6173 9.58811 39.1514 9.22604 38.7346C8.86718 38.321 8.4168 37.9468 8.17836 37.4423C7.98969 37.0432 7.89336 36.5636 7.71272 36.1057C7.54573 35.6801 7.17804 35.2979 7.03996 34.8392C6.90589 34.3918 7.16439 33.839 7.07769 33.3771C6.99098 32.9153 6.75495 32.4743 6.73729 32.01C6.71963 31.5458 6.60402 31.0372 6.67949 30.5802C6.75495 30.1231 7.02952 29.6838 7.22862 29.2573C7.42772 28.8308 7.8781 28.6321 8.20967 28.2732C8.58619 27.8661 8.74435 27.2666 9.1289 26.9021C9.53432 26.5175 10.0417 26.272 10.4439 25.9357C10.8782 25.572 11.2162 25.1238 11.6313 24.8156C12.0961 24.4696 12.6372 24.2958 13.0555 24.019C13.4987 23.7261 13.6472 23.1146 13.9932 22.7291C14.3392 22.3437 14.7679 22.0363 15.0064 21.5712C15.2448 21.1061 15.4744 20.6378 15.5876 20.1228C15.7008 19.6079 15.8164 19.0905 15.7955 18.5594L15.5908 18.5674C15.5707 18.0573 15.8132 17.5632 15.9135 17.082C16.0139 16.6009 16.1905 16.1334 16.4057 15.686C16.6232 15.2329 16.6465 14.6286 16.9644 14.2448C17.2824 13.861 17.9615 13.8489 18.3654 13.5528C18.7692 13.2567 19.1048 12.9252 19.5728 12.7369C20.0408 12.5486 20.4679 12.2935 20.9737 12.2267C21.4795 12.16 21.9981 12.1511 22.5055 12.1761C22.8604 12.1938 23.2963 12.4062 23.8518 12.6323C24.2412 12.7908 24.6378 13.0507 25.1091 13.2986C25.5008 13.5037 26.0355 13.5255 26.4755 13.7846C26.8656 14.0147 27.3393 14.1668 27.7624 14.4339C28.151 14.6793 28.5074 15.0165 28.9184 15.2901C29.3046 15.5468 29.6362 15.9121 30.0392 16.1913C30.4422 16.4705 30.9367 16.5598 31.3333 16.8423C31.7299 17.1247 32.1161 17.383 32.5071 17.6686C32.898 17.9543 33.2192 18.3067 33.6053 18.5956C33.9915 18.8845 34.1657 19.4333 34.5478 19.7245C34.93 20.0158 35.5032 20.044 35.8821 20.3385C36.2611 20.633 36.6617 20.8937 37.0366 21.1898C37.4115 21.4859 37.7294 21.8577 38.1003 22.1562C38.4712 22.4547 38.8028 22.812 39.1705 23.1129C39.5382 23.4139 40.0439 23.5628 40.4076 23.8653C40.7785 24.1743 40.9319 24.7367 41.2923 25.0425C41.6528 25.3483 41.9177 25.7908 42.2734 26.0982C42.629 26.4056 43.2986 26.3903 43.6486 26.6993C44.0163 27.0244 44.3061 27.4211 44.6497 27.7325C45.0166 28.0648 45.1483 28.6281 45.4839 28.9411C45.8572 29.2903 46.4248 29.4166 46.7965 29.7441C47.1682 30.0716 47.4917 30.4941 47.8723 30.8095C48.2528 31.1249 48.7096 31.3921 49.0982 31.6954C49.4867 31.9988 49.8135 32.4405 50.2085 32.7326C50.6243 33.04 51.1598 33.1591 51.5604 33.4391C51.9867 33.7376 52.2533 34.2438 52.6579 34.5125C53.0954 34.803 53.5049 35.1056 53.9111 35.3622C54.3607 35.6471 54.8737 35.7799 55.2775 36.0261C55.7439 36.3101 56.0779 36.7374 56.4729 36.9716C56.9706 37.2669 57.4154 37.5018 57.7767 37.7239C58.4727 38.1512 58.895 38.292 58.9608 38.4803C59.0548 38.749 59.4048 39.1964 59.7203 39.7162C59.9555 40.1049 60.2702 40.4823 60.3553 40.961C60.4332 41.4004 60.5809 41.9443 60.3449 42.4263C60.1691 42.7852 59.8279 43.202 59.3903 43.5689C59.0837 43.8256 58.4968 43.816 57.9902 44.0702C57.6033 44.2642 57.2717 44.7107 56.7739 44.8966C56.3541 45.0527 55.7865 44.8636 55.2911 45.0101C54.8536 45.1396 54.3944 45.2394 53.8998 45.3585C53.4519 45.4663 53.0705 45.9757 52.5768 46.073C52.1208 46.1631 51.6295 46.1768 51.1357 46.2565C50.6741 46.3305 50.1924 46.3852 49.6995 46.4488C49.2338 46.5091 48.7538 46.5759 48.2616 46.6258C47.7695 46.6757 47.3087 46.6886 46.8166 46.7256C46.3244 46.7626 45.8684 46.8914 45.3763 46.9171C44.8842 46.9429 44.4193 46.9847 43.928 46.9992C43.4367 47.0137 42.9662 46.7996 42.4757 46.8036C41.9852 46.8077 41.5187 46.8737 41.029 46.868C40.5393 46.8624 40.068 46.9767 39.5783 46.9614C39.0886 46.9461 38.6302 46.6854 38.1421 46.6604C37.6539 46.6355 37.1931 46.5132 36.7058 46.4794C36.2185 46.4456 35.7344 46.625 35.2479 46.5832C34.7614 46.5413 34.3094 46.3257 33.8245 46.275C33.3805 46.2291 32.8988 46.2903 32.4059 46.2138C31.9571 46.1446 31.469 46.18 30.9873 46.0891C30.5361 46.0038 30.0777 45.8703 29.6025 45.7681C29.1272 45.6659 28.7466 45.307 28.2778 45.1976C27.809 45.0881 27.2582 45.4156 26.7934 45.2989C26.3285 45.1823 25.895 44.9964 25.4342 44.8749C24.9734 44.7534 24.5856 44.3897 24.128 44.2642C23.6704 44.1386 23.2144 44.0147 22.7608 43.8852C22.3072 43.7556 21.8335 43.6735 21.3832 43.5416C20.9328 43.4096 20.4993 43.1747 20.0513 43.0395C19.6033 42.9043 19.1762 42.6388 18.7322 42.502C18.2883 42.3652 17.6797 42.6605 17.2398 42.5229C16.7726 42.3764 16.441 41.851 16.0067 41.7126C15.5338 41.5621 15.1003 41.3626 14.674 41.2242C14.1891 41.0673 13.7259 40.9562 13.3132 40.821C12.7986 40.6529 12.2495 40.7993 11.8689 40.6754V40.6762Z" fill="white"/>
<path d="M6.25274 0.150882C5.77506 0.269971 5.40015 0.666667 4.96181 0.879097C4.52347 1.09153 4.07951 1.27418 3.68773 1.56788C3.29836 1.86078 2.92103 2.16494 2.58706 2.52462C2.25469 2.88108 1.84606 3.19329 1.57631 3.60286C1.30656 4.01243 1.29131 4.55879 1.0906 5.00618C0.890699 5.45277 0.494105 5.83015 0.369668 6.30329C0.243625 6.78608 0.102328 7.28658 0.0501446 7.78144C-0.00203884 8.2755 -0.00926423 8.79531 0.00759502 9.2942C0.0244543 9.78987 0.179399 10.2879 0.259681 10.7812C0.339963 11.2745 0.547894 11.7339 0.685176 12.2143C0.822459 12.6947 0.98222 13.1574 1.17088 13.6184C1.35955 14.0795 1.4615 14.584 1.69834 15.0201C1.93356 15.453 2.23944 15.8755 2.53167 16.3188C2.80864 16.7381 3.17794 17.1058 3.49907 17.5162C3.81377 17.9185 4.01689 18.4246 4.36692 18.8012C4.71695 19.1778 5.10631 19.5343 5.48685 19.869C5.90914 20.2416 6.05605 20.7895 5.77908 21.2796C5.46277 21.8388 5.28936 22.4165 5.05253 22.8639C4.58849 23.7418 4.31955 24.3469 4.28503 24.4185C4.28262 24.4234 4.18548 24.3791 4.18387 24.3839C4.03856 24.8096 3.94463 24.7774 3.79852 25.2031C3.62752 25.7044 3.53118 26.2371 3.48622 26.7528C3.44126 27.2686 3.37222 27.8295 3.4533 28.3453C3.53439 28.861 3.85873 29.3285 4.06184 29.8129C4.26255 30.2901 4.5331 30.727 4.84941 31.1511L4.71695 31.2501C4.79402 31.3539 4.92969 31.2348 4.9313 31.106C4.93692 30.7922 5.0742 30.3191 5.14967 29.7574C5.20426 29.3511 5.14084 28.8594 5.26447 28.3903C5.37526 27.9711 5.78791 27.6291 5.97336 27.2026C6.14998 26.7963 6.19093 26.3054 6.45184 25.9281C6.70393 25.5644 7.01382 25.2135 7.35983 24.9086C7.68578 24.6205 8.06311 24.3421 8.48539 24.1329C8.93256 23.9116 9.39178 23.7981 9.77633 23.6058C10.2283 23.3805 10.6241 23.1431 10.9982 22.9404C11.4462 22.6982 11.8291 22.4479 12.1776 22.2073C12.5878 21.9241 13.0269 21.7213 13.3184 21.389C13.6098 21.0567 13.6588 20.5449 13.8555 20.0935C14.0233 19.7081 14.232 19.3146 14.3412 18.8085C14.4536 18.2887 14.7048 17.8469 14.7313 17.4293C14.7651 16.8966 14.578 16.4259 14.5684 16.0066C14.5563 15.4909 14.6912 15.0652 14.7948 14.625C14.8911 14.2155 14.8686 13.7053 15.2307 13.2732C15.3134 13.1743 15.3455 13.1855 15.2187 13.2105C14.8919 13.2764 14.4118 13.4221 13.8699 13.5549C13.4308 13.6627 12.9531 13.7351 12.5164 13.8735C12.0082 14.0352 11.5096 14.1262 11.1925 14.3136C10.8513 14.5148 10.523 14.8246 10.1689 15.1577C9.86705 15.4418 9.57241 15.7741 9.26894 16.129C8.99197 16.4532 8.78725 16.8539 8.51509 17.2193C8.27505 17.5411 7.67454 17.7029 7.32531 17.5057C6.90865 17.2708 6.62204 16.8137 6.23348 16.5192C5.84491 16.2247 5.43146 15.9769 5.08705 15.6357C4.74264 15.2945 4.32035 15.0065 4.02893 14.6218C3.7375 14.2372 3.60424 13.7311 3.37704 13.307C3.14984 12.883 3.01898 12.4171 2.87206 11.9584C2.72515 11.4998 2.45861 11.0596 2.40803 10.5768C2.35344 10.0522 2.46423 9.52916 2.49152 9.02061C2.51882 8.51207 2.58305 7.98985 2.69946 7.49177C2.81586 6.99368 2.99088 6.50445 3.20282 6.03614C3.41477 5.56783 3.61708 5.08826 3.92536 4.66983C4.23365 4.25141 4.65673 3.96576 5.05172 3.61654C5.44671 3.26732 5.84491 3.02109 6.30733 2.75395C6.8388 2.44657 7.33013 2.0378 7.93706 1.91549C8.57611 1.78675 9.30989 1.96136 9.94893 2.09091C10.4571 2.19391 10.9613 2.37093 11.3948 2.67911C11.8283 2.9873 12.2683 3.33249 12.3237 3.92311C12.3727 4.44694 12.029 4.96514 11.6124 5.24999C11.2696 5.48495 11.2487 5.99671 11.5353 6.31214C11.7657 6.56561 12.3165 6.79896 12.5276 6.53905C12.8849 6.09891 12.9483 5.5453 13.1305 5.14136C13.3649 4.62316 13.5424 4.17819 13.5303 3.72678C13.5167 3.20616 13.3176 2.76441 13.0446 2.34357C12.7837 1.94124 12.5252 1.47776 12.0925 1.17762C11.6983 0.903236 11.1861 0.769663 10.7004 0.587006C10.2412 0.41481 9.77552 0.162147 9.27617 0.078463C8.77681 -0.00522128 8.2606 -0.00522129 7.76526 0.00523925C7.26992 0.0156998 6.7232 0.0334022 6.25274 0.150882Z" fill="white"/>
</g>
<defs>
<clipPath id="clip0_2047_1863">
<rect width="60.4733" height="47" fill="white"/>
</clipPath>
</defs>
</svg>
