<svg width="42" height="42" viewBox="0 0 42 42" fill="none" xmlns="http://www.w3.org/2000/svg">
<g clip-path="url(#clip0_2047_594)">
<path fill-rule="evenodd" clip-rule="evenodd" d="M27.4873 22.2372C27.8153 21.9091 27.9996 21.464 27.9996 21C27.9996 20.536 27.8153 20.0909 27.4873 19.7627L17.5875 9.86299C17.4261 9.69585 17.233 9.56253 17.0195 9.47081C16.806 9.3791 16.5763 9.33082 16.344 9.3288C16.1116 9.32678 15.8812 9.37106 15.6661 9.45905C15.451 9.54704 15.2556 9.67699 15.0913 9.8413C14.927 10.0056 14.7971 10.201 14.7091 10.4161C14.6211 10.6311 14.5768 10.8616 14.5788 11.0939C14.5808 11.3263 14.6291 11.5559 14.7208 11.7694C14.8125 11.983 14.9459 12.1761 15.113 12.3375L23.7755 21L15.113 29.6625C14.7942 29.9925 14.6178 30.4346 14.6218 30.8934C14.6258 31.3523 14.8099 31.7912 15.1343 32.1157C15.4588 32.4401 15.8977 32.6242 16.3566 32.6282C16.8154 32.6322 17.2575 32.4558 17.5875 32.137L27.4873 22.2372Z" fill="white"/>
</g>
<defs>
<clipPath id="clip0_2047_594">
<rect width="42" height="42" fill="white" transform="matrix(-1 0 0 1 42 0)"/>
</clipPath>
</defs>
</svg>
