<svg width="42" height="42" viewBox="0 0 42 42" fill="none" xmlns="http://www.w3.org/2000/svg">
<g clip-path="url(#clip0_2047_588)">
<path fill-rule="evenodd" clip-rule="evenodd" d="M14.5127 22.2372C14.1847 21.9091 14.0004 21.464 14.0004 21C14.0004 20.536 14.1847 20.0909 14.5127 19.7627L24.4125 9.86299C24.5739 9.69585 24.767 9.56253 24.9805 9.47081C25.194 9.3791 25.4237 9.33082 25.656 9.3288C25.8884 9.32678 26.1188 9.37106 26.3339 9.45905C26.549 9.54704 26.7444 9.67699 26.9087 9.8413C27.073 10.0056 27.2029 10.201 27.2909 10.4161C27.3789 10.6311 27.4232 10.8616 27.4212 11.0939C27.4192 11.3263 27.3709 11.5559 27.2792 11.7694C27.1875 11.983 27.0541 12.1761 26.887 12.3375L18.2245 21L26.887 29.6625C27.2058 29.9925 27.3822 30.4346 27.3782 30.8934C27.3742 31.3523 27.1901 31.7912 26.8657 32.1157C26.5412 32.4401 26.1023 32.6242 25.6434 32.6282C25.1846 32.6322 24.7425 32.4558 24.4125 32.137L14.5127 22.2372Z" fill="white"/>
</g>
<defs>
<clipPath id="clip0_2047_588">
<rect width="42" height="42" fill="white"/>
</clipPath>
</defs>
</svg>
